<?xml version="1.0" encoding="UTF-8" standalone="no"?>
<!DOCTYPE svg PUBLIC "-//W3C//DTD SVG 1.1//EN" "http://www.w3.org/Graphics/SVG/1.1/DTD/svg11.dtd">
<svg version="1.1" xmlns="http://www.w3.org/2000/svg" xmlns:xlink="http://www.w3.org/1999/xlink" preserveAspectRatio="xMidYMid meet" viewBox="-1 -1 54.66700000000001 54.666999999999994" width="50.67" height="50.67"><defs><path d="M0 0L50.67 0L50.67 50.67L0 50.67L0 0Z" id="f364P8Iehb"></path><path d="M3.9 17.35C8.76 17.35 21.26 16.57 21.1 23.4C20.99 27.62 19.18 30.24 15.65 31.24C15.18 31.37 14.69 31.44 14.2 31.44C12.82 31.44 9.39 31.44 3.9 31.44L3.9 16.18L3.9 4.47" id="b1PMdOti0B"></path><path d="M44.43 45.43C25.92 46.7 16.72 42.16 16.83 31.8C16.95 21.43 26.54 17.2 45.61 19.11" id="a2k0Gyy1jV"></path><path d="M43.04 32.15L17.12 31.71" id="g2sKeWukc"></path><path d="" id="i1n5uftTTp"></path><path d="M5.41 17.27C7.95 17.27 10.52 17.27 13.13 17.27C17.03 17.27 18.51 17.1 18.53 11.7C18.55 8.09 17.18 6.18 14.44 5.95L4.9 5.95" id="bzUSN7t31"></path></defs><g><g><use xlink:href="#f364P8Iehb" opacity="1" fill="#00a7ec" fill-opacity="1"></use></g><g><g><use xlink:href="#b1PMdOti0B" opacity="1" fill-opacity="0" stroke="#000000" stroke-width="3" stroke-opacity="1"></use></g></g><g><g><use xlink:href="#a2k0Gyy1jV" opacity="1" fill-opacity="0" stroke="#f07777" stroke-width="3" stroke-opacity="1"></use></g></g><g><g><use xlink:href="#g2sKeWukc" opacity="1" fill-opacity="0" stroke="#f07777" stroke-width="3" stroke-opacity="1"></use></g></g><g><g><use xlink:href="#i1n5uftTTp" opacity="1" fill-opacity="0" stroke="#000000" stroke-width="1" stroke-opacity="1"></use></g></g><g><g><use xlink:href="#bzUSN7t31" opacity="1" fill-opacity="0" stroke="#000000" stroke-width="3" stroke-opacity="1"></use></g></g></g></svg>